<svg width="154" height="254" viewBox="0 0 154 254" fill="none" xmlns="http://www.w3.org/2000/svg">
<path d="M73.3197 253.226C101.539 253.226 124.415 251.908 124.415 250.282C124.415 248.657 101.539 247.339 73.3197 247.339C45.1007 247.339 22.2246 248.657 22.2246 250.282C22.2246 251.908 45.1007 253.226 73.3197 253.226Z" fill="#D1D3D4"/>
<path d="M16.3376 121.134C16.0534 121.499 15.0993 141.88 14.0538 142.926C11.2118 145.768 11.5773 139.881 11.5773 139.881C11.5773 139.881 6.1267 151.766 2.9599 150.863C-2.8053 149.219 3.1832 135.455 4.65495 132.664C6.05565 127.224 6.23835 116.353 6.23835 116.353" fill="white"/>
<path d="M3.29489 151.411C3.13395 151.411 2.97367 151.391 2.81784 151.35C2.29117 151.205 1.80532 150.94 1.39849 150.575C0.991653 150.211 0.67492 149.757 0.473192 149.249C-1.41471 144.824 2.86859 134.989 4.17794 132.481C5.52789 127.143 5.73088 116.455 5.73088 116.343C5.73613 116.209 5.79298 116.083 5.88949 115.99C5.98601 115.897 6.1147 115.846 6.24854 115.846C6.3156 115.846 6.38197 115.859 6.44367 115.885C6.50538 115.912 6.56114 115.95 6.60759 115.998C6.65405 116.047 6.69025 116.104 6.71401 116.167C6.73778 116.229 6.74862 116.296 6.74588 116.363C6.74588 116.81 6.54288 127.356 5.14218 132.786C5.1479 132.823 5.1479 132.861 5.14218 132.898C3.99523 135.09 -0.277917 144.804 1.44758 148.853C1.59189 149.222 1.82031 149.551 2.11462 149.816C2.40893 150.08 2.76097 150.272 3.14263 150.376C5.03053 150.914 8.96873 144.438 11.151 139.668C11.1999 139.559 11.2858 139.47 11.3935 139.418C11.5012 139.366 11.6238 139.354 11.7397 139.383C11.8539 139.415 11.9541 139.485 12.0241 139.58C12.0941 139.676 12.1297 139.793 12.1254 139.911C12.034 141.292 12.2573 142.956 12.7039 143.18C12.8359 143.24 13.181 143.119 13.7189 142.571C14.2975 141.688 14.9877 132.055 15.3632 126.879C15.7794 121.063 15.7997 121.022 15.9722 120.789C16.0545 120.683 16.1755 120.613 16.3086 120.596C16.4418 120.579 16.5763 120.615 16.6827 120.697C16.7705 120.766 16.833 120.863 16.8605 120.971C16.888 121.079 16.8791 121.193 16.835 121.296C16.7436 121.702 16.5609 124.24 16.3681 126.919C15.6271 137.435 15.1399 142.56 14.4396 143.261C13.7392 143.961 12.8866 144.357 12.2776 144.073C11.9347 143.833 11.6543 143.514 11.4601 143.143C11.2658 142.772 11.1633 142.36 11.1611 141.941C9.43564 145.362 6.00494 151.411 3.29489 151.411Z" fill="#231F20"/>
<path d="M90.4224 75.5806L102.602 70.2924C102.602 70.2924 105.038 64.4359 107.464 63.7152C110.334 63.1347 113.24 62.7548 116.163 62.5784C116.956 63.1479 117.558 63.9445 117.89 64.8632C118.222 65.7819 118.267 66.7795 118.02 67.7245C117.3 71.2871 112.59 77.0117 106.013 78.4327L93.9952 89.009" fill="white"/>
<path d="M93.9951 89.5165C93.9224 89.5159 93.8506 89.5002 93.7842 89.4705C93.7178 89.4408 93.6583 89.3977 93.6094 89.344C93.5653 89.2944 93.5315 89.2364 93.5101 89.1736C93.4888 89.1107 93.4802 89.0442 93.4849 88.978C93.4897 88.9118 93.5076 88.8472 93.5377 88.788C93.5678 88.7289 93.6094 88.6763 93.6601 88.6335L105.657 78.0572C105.723 77.9971 105.804 77.9552 105.891 77.9354C112.316 76.5448 116.833 70.9522 117.502 67.623C117.717 66.804 117.689 65.9403 117.423 65.1368C117.156 64.3332 116.662 63.6243 116 63.0961C113.166 63.2629 110.347 63.6327 107.566 64.2024C105.769 64.7404 103.688 68.9222 103.039 70.4853C102.986 70.6087 102.888 70.7069 102.765 70.7593L90.5847 76.0475C90.4609 76.1013 90.3207 76.1038 90.1951 76.0543C90.0694 76.0048 89.9686 75.9074 89.9148 75.7836C89.8609 75.6597 89.8585 75.5196 89.908 75.394C89.9575 75.2683 90.0548 75.1675 90.1787 75.1137L102.135 69.9067C102.633 68.7598 104.825 63.9385 107.21 63.228C110.119 62.6329 113.067 62.2462 116.031 62.0709C116.137 62.0627 116.243 62.0875 116.335 62.142C117.221 62.7615 117.896 63.6372 118.27 64.6513C118.643 65.6655 118.698 66.7697 118.426 67.8158C117.695 71.4901 113.026 77.3467 106.165 78.8996L94.259 89.3947C94.1841 89.4592 94.0927 89.5014 93.9951 89.5165Z" fill="#231F20"/>
<path d="M115.138 55.2907L100.045 74.5351L108.855 75.5806L122.852 56.864L115.138 55.2907Z" fill="#231F20"/>
<path d="M108.855 76.1185H108.794L99.9839 75.1035C99.8955 75.0929 99.8114 75.0591 99.7401 75.0057C99.6689 74.9522 99.6129 74.8809 99.5779 74.799C99.5415 74.7162 99.5288 74.6248 99.5413 74.5352C99.5539 74.4455 99.5911 74.3612 99.649 74.2915L114.742 55.0065C114.799 54.9323 114.876 54.8758 114.964 54.8434C115.052 54.8111 115.148 54.8043 115.239 54.8238L122.964 56.3971C123.046 56.4142 123.123 56.4521 123.187 56.5072C123.251 56.5622 123.3 56.6326 123.329 56.7117C123.361 56.7904 123.371 56.876 123.358 56.9599C123.346 57.0437 123.311 57.1227 123.258 57.1888L109.261 75.8851C109.216 75.9526 109.156 76.0088 109.085 76.0493C109.015 76.0898 108.936 76.1135 108.855 76.1185ZM100.999 74.1697L108.622 75.0731L121.979 57.2294L115.351 55.8185L100.999 74.1697Z" fill="#231F20"/>
<path d="M115.615 55.6663L102.349 72.566L108.215 73.4288L121.289 56.864L115.615 55.6663Z" fill="white"/>
<path d="M100.045 86.2685L94.0662 72.4036L64.0933 86.2685L67.1383 110.192C67.1383 110.192 94.0865 94.1145 100.045 86.2685Z" fill="#A93029"/>
<path d="M97.8931 218.655C97.8931 218.655 104.277 234.408 103.699 234.398C103.12 234.387 89.3468 236.58 89.3468 236.58C89.3468 236.58 83.0639 223.659 83.2568 223.385C83.4496 223.111 97.8931 218.655 97.8931 218.655Z" fill="white"/>
<path d="M89.3465 237.087C89.2514 237.088 89.1581 237.061 89.0774 237.011C88.9966 236.961 88.9316 236.889 88.8897 236.803C82.4952 223.608 82.617 223.425 82.7997 223.131C82.9824 222.837 83.0433 222.664 97.771 218.168C97.8923 218.133 98.0222 218.144 98.1363 218.198C98.2503 218.252 98.3406 218.346 98.3901 218.462C104.663 233.951 104.358 234.398 104.165 234.702C104.118 234.777 104.052 234.837 103.973 234.878C103.895 234.919 103.807 234.939 103.719 234.936C103.181 234.936 94.8884 236.245 89.4581 237.108L89.3465 237.087ZM83.835 223.649C84.4745 225.263 87.5601 231.769 89.6408 236.022C92.2697 235.595 100.806 234.235 103.15 233.941C102.653 232.033 99.6386 224.349 97.5883 219.274C92.7366 220.756 85.5098 223.019 83.835 223.649Z" fill="#231F20"/>
<path d="M103.699 234.398C103.699 234.398 126.343 236.083 126.952 240.224C127.561 244.365 93.0514 250.282 93.0514 250.282L89.3467 236.58L103.699 234.398Z" fill="#231F20"/>
<path d="M93.0516 250.78C92.9413 250.781 92.8337 250.746 92.7455 250.68C92.6573 250.614 92.5936 250.521 92.5644 250.414L88.8596 236.712C88.8389 236.644 88.8336 236.572 88.8441 236.502C88.8547 236.432 88.8808 236.365 88.9205 236.306C88.9588 236.246 89.0094 236.195 89.0689 236.157C89.1284 236.118 89.1955 236.093 89.2656 236.083L103.618 233.89H103.74C107.586 234.174 126.821 235.829 127.45 240.153C128.079 244.477 101.344 249.369 93.1429 250.78H93.0516ZM90.0066 236.996L93.417 249.684C109.657 246.872 126.78 242.518 126.445 240.274C126.242 238.833 119.878 236.093 103.719 234.885L90.0066 236.996Z" fill="#231F20"/>
<path d="M50.4316 215.255L43.8848 220.857L34.9224 208.586L44.3923 200.933L50.4316 215.255Z" fill="white"/>
<path d="M43.8849 221.365C43.8147 221.358 43.7467 221.337 43.6854 221.302C43.6242 221.267 43.5711 221.219 43.5297 221.162L34.5672 208.901C34.4885 208.795 34.454 208.663 34.4711 208.532C34.4881 208.401 34.5554 208.282 34.6586 208.2L44.1285 200.547C44.1889 200.495 44.2617 200.459 44.3399 200.443C44.4181 200.428 44.4991 200.432 44.5751 200.456C44.6518 200.474 44.7232 200.51 44.7832 200.562C44.8432 200.613 44.8901 200.677 44.9202 200.75L51.0102 215.072C51.049 215.171 51.0562 215.28 51.0307 215.384C51.0053 215.487 50.9485 215.581 50.8681 215.651L44.2199 221.264C44.1238 221.336 44.0051 221.372 43.8849 221.365ZM35.6228 208.678L43.9763 220.117L49.8227 215.113L44.1894 201.755L35.6228 208.678Z" fill="#231F20"/>
<path d="M43.8845 220.858C43.8845 220.858 48.4622 244.456 44.5646 243.644C40.667 242.832 25.0664 216.848 25.0664 216.848L34.9221 208.586L43.8845 220.858Z" fill="#231F20"/>
<path d="M44.768 244.162C44.6668 244.172 44.5648 244.172 44.4635 244.162C40.4746 243.33 26.1935 219.802 24.6304 217.132C24.5707 217.028 24.5491 216.906 24.5695 216.788C24.5899 216.669 24.6509 216.561 24.7421 216.483L34.5977 208.231C34.6441 208.18 34.7005 208.139 34.7634 208.111C34.8263 208.083 34.8943 208.069 34.9631 208.069C35.0319 208.075 35.0984 208.097 35.158 208.132C35.2176 208.167 35.2688 208.215 35.3082 208.272L44.2808 220.533C44.3223 220.594 44.35 220.663 44.362 220.736C44.362 220.786 45.377 225.811 46.0063 231.139C47.3766 242.061 46.0774 243.319 45.6511 243.756C45.5396 243.881 45.4037 243.981 45.2518 244.051C45.0999 244.121 44.9352 244.158 44.768 244.162ZM25.7266 216.95C31.9689 227.323 41.9666 242.589 44.6767 243.147C44.7269 243.161 44.78 243.16 44.8302 243.146C44.8803 243.132 44.9255 243.104 44.9609 243.066C46.6153 241.432 44.9 228.754 43.4181 221.061L34.8312 209.327L25.7266 216.95Z" fill="#231F20"/>
<path d="M70.8533 108.467C70.8533 108.467 109.86 163.439 109.941 168.352C110.124 177.913 50.7766 219.162 50.7766 219.162L40.7788 200.964L77.1463 168.22L42.9712 106.051L70.8533 108.467Z" fill="#231F20"/>
<path d="M50.7768 219.68H50.6651C50.5949 219.666 50.5289 219.636 50.4725 219.592C50.4161 219.548 50.3708 219.491 50.3403 219.426L40.3324 201.248C40.2768 201.147 40.2576 201.031 40.2779 200.918C40.2983 200.805 40.3569 200.703 40.4441 200.629L76.507 168.149L42.5248 106.335C42.4793 106.255 42.4567 106.165 42.4596 106.073C42.4624 105.981 42.4907 105.892 42.5411 105.815C42.5916 105.738 42.6623 105.677 42.7454 105.638C42.8285 105.599 42.9208 105.584 43.012 105.594L70.8941 107.969C70.9664 107.978 71.0362 108.001 71.0991 108.038C71.1619 108.074 71.2166 108.124 71.2595 108.182C75.3195 113.826 110.357 163.429 110.449 168.362C110.631 178.085 53.497 217.914 51.0711 219.599C50.9831 219.654 50.8808 219.683 50.7768 219.68ZM41.4083 201.106L50.9493 218.442C53.568 216.605 66.9356 207.196 80.1204 196.954C105.719 177.06 109.484 170.513 109.444 168.372C109.373 164.484 81.4907 124.351 70.5693 108.954L43.8646 106.67L77.5931 168.006C77.648 168.106 77.6679 168.221 77.6495 168.334C77.6311 168.446 77.5754 168.549 77.4916 168.626L41.4083 201.106Z" fill="#231F20"/>
<path d="M32.0601 114.516L84.4138 231.515L104.44 223.202L63.4439 108.294L32.0601 114.516Z" fill="#231F20"/>
<path d="M84.4137 232.022C84.3161 232.022 84.2207 231.993 84.1395 231.939C84.0583 231.885 83.9948 231.808 83.9569 231.718L31.6032 114.688C31.5684 114.619 31.5503 114.543 31.5503 114.465C31.5503 114.388 31.5684 114.311 31.6032 114.242C31.6376 114.175 31.6865 114.117 31.7461 114.071C31.8058 114.026 31.8749 113.994 31.9483 113.978L63.3829 107.797C63.5021 107.774 63.6253 107.795 63.731 107.854C63.8368 107.914 63.9183 108.008 63.9614 108.121L104.957 223.03C105.001 223.152 104.996 223.287 104.943 223.406C104.89 223.525 104.793 223.619 104.673 223.669L84.6471 231.982C84.5749 232.018 84.4938 232.032 84.4137 232.022ZM32.7806 114.891L84.6979 230.855L103.831 222.918L63.1291 108.873L32.7806 114.891Z" fill="#231F20"/>
<path d="M91.6911 185.921C91.5868 185.921 91.485 185.889 91.3996 185.829C91.3143 185.769 91.2495 185.684 91.214 185.586L67.7269 121.976C67.6973 121.897 67.6883 121.812 67.7007 121.729C67.7132 121.645 67.7466 121.566 67.798 121.499L71.858 116.008C71.9403 115.903 72.0603 115.833 72.1928 115.814C72.3252 115.795 72.4599 115.828 72.5685 115.907C72.6226 115.946 72.6684 115.995 72.7033 116.052C72.7382 116.109 72.7615 116.173 72.7719 116.239C72.7823 116.305 72.7795 116.372 72.7637 116.437C72.748 116.502 72.7196 116.563 72.6801 116.617L68.7825 121.875L92.1275 185.231C92.1518 185.293 92.1634 185.359 92.1617 185.426C92.16 185.492 92.145 185.557 92.1176 185.618C92.0901 185.679 92.0508 185.733 92.002 185.778C91.9531 185.823 91.8957 185.858 91.8332 185.881C91.7889 185.903 91.7406 185.917 91.6911 185.921Z" fill="white"/>
<path d="M47.9039 33.4885C47.6129 33.5475 47.3122 33.5382 47.0254 33.4613C46.7386 33.3843 46.4736 33.2418 46.2512 33.045C46.0288 32.8483 45.8552 32.6025 45.7439 32.3272C45.6327 32.0519 45.5868 31.7545 45.61 31.4585L45.0112 21.3085C44.6869 18.2398 44.7962 15.1407 45.336 12.1025C45.9856 9.19955 47.8227 6.2053 50.7358 5.64705C51.7508 5.46435 52.7658 5.576 53.7808 5.32225C55.6382 4.8452 56.8968 3.1806 58.4701 2.0844C59.7178 1.23006 61.1656 0.713661 62.6723 0.585582C64.179 0.457502 65.6932 0.722112 67.0671 1.3536C67.7834 1.75058 68.5301 2.08999 69.3001 2.3686C71.7564 3.06895 74.2229 1.3536 76.7604 1.1506C80.5971 0.805499 83.9872 3.9317 85.5503 7.4436C87.6716 12.2141 86.7277 18.842 82.0587 21.1562C78.3844 22.9731 74.5274 21.8668 70.7313 22.0393C66.7423 22.2119 64.9559 25.2061 62.0327 27.5203C59.2679 29.7546 55.994 31.2713 52.5019 31.9356C51.2027 32.1589 50.7865 32.7272 49.6193 33.1129C49.0682 33.3189 48.4906 33.4453 47.9039 33.4885Z" fill="white"/>
<path d="M47.7212 33.9656C47.3849 33.9957 47.046 33.9544 46.7267 33.8444C46.4074 33.7343 46.1151 33.558 45.8688 33.3271C45.6224 33.0961 45.4277 32.8156 45.2974 32.5041C45.1671 32.1926 45.1041 31.857 45.1127 31.5194L44.5036 21.3085C44.1741 18.1923 44.2869 15.0451 44.8386 11.9604C45.4983 9.05747 47.3659 5.73841 50.6444 5.11926C51.1181 5.04278 51.5961 4.99532 52.0756 4.97717C52.5944 4.97331 53.1115 4.91548 53.6184 4.80462C54.7706 4.40452 55.8133 3.74065 56.6634 2.86597C57.1506 2.44982 57.6783 2.01337 58.1757 1.63782C59.4979 0.721465 61.0373 0.167977 62.6402 0.032616C64.2432 -0.102745 65.8536 0.184758 67.3107 0.866416L68.0415 1.24196C68.4943 1.50842 68.974 1.72617 69.4727 1.89157C70.918 2.13641 72.4035 1.95294 73.7458 1.36377C74.7154 1.01992 75.7193 0.781712 76.7401 0.653265C80.9726 0.277715 84.4642 3.69827 86.0476 7.25077C88.2502 12.204 87.2757 19.1669 82.3124 21.6232C79.6429 22.9528 76.872 22.7904 74.1924 22.6382C73.0579 22.5504 71.9194 22.5233 70.782 22.557C68.0313 22.6788 66.4175 24.2114 64.5398 25.9877C63.8597 26.6373 63.1594 27.3072 62.3677 27.9263C59.5235 30.2322 56.1506 31.7948 52.5526 32.4735C52.0105 32.5762 51.4914 32.7756 51.02 33.0622C50.6152 33.2899 50.1905 33.4801 49.7512 33.6306C49.1662 33.8389 48.5544 33.962 47.9344 33.996L47.7212 33.9656ZM63.3827 1.00852C61.7163 0.995184 60.0863 1.49484 58.7136 2.43967C58.2169 2.80707 57.7424 3.20361 57.2927 3.62722C56.3338 4.6038 55.1585 5.34095 53.8619 5.77902C53.2875 5.90048 52.7031 5.96844 52.1161 5.98202C51.6847 6.00056 51.2544 6.04121 50.8271 6.10382C48.0257 6.63162 46.4017 9.58527 45.813 12.1938C45.2853 15.1857 45.1828 18.2372 45.5085 21.2578L46.1277 31.4585C46.1886 32.5446 46.7265 33.0013 47.8938 32.9404C48.4234 32.9074 48.946 32.8015 49.4467 32.6258C49.8308 32.4963 50.2013 32.3297 50.5531 32.1284C51.1177 31.7851 51.7403 31.5478 52.3902 31.4281C55.8017 30.7879 59.0003 29.309 61.6977 27.1245C62.459 26.5256 63.139 25.876 63.8089 25.2467C65.7374 23.4096 67.5644 21.6739 70.6906 21.5318C71.8653 21.4978 73.0409 21.5249 74.2127 21.613C76.872 21.7653 79.3791 21.9074 81.8151 20.6995C86.2506 18.5071 87.0829 12.1837 85.0732 7.65676C83.6826 4.53056 80.4955 1.32316 76.7806 1.65811C75.8321 1.77997 74.8996 2.00459 73.9996 2.32801C72.4704 2.98117 70.7816 3.16489 69.1478 2.85582C68.5782 2.67227 68.0303 2.42722 67.5137 2.12502C67.2803 2.00322 67.0569 1.88142 66.8235 1.77992C65.7495 1.26638 64.5731 1.00265 63.3827 1.00852Z" fill="#231F20"/>
<path d="M71.4011 23.8968C71.4011 23.8968 74.1518 30.7277 73.0657 31.8036C71.9797 32.8795 69.4727 31.4585 69.4727 31.4585" fill="white"/>
<path d="M71.8988 32.7273C70.949 32.669 70.0237 32.4022 69.1888 31.9457C69.0721 31.8794 68.9857 31.7704 68.9478 31.6417C68.9099 31.5129 68.9236 31.3744 68.9858 31.2555C69.0167 31.1971 69.0589 31.1454 69.1099 31.1035C69.161 31.0616 69.2199 31.0303 69.2832 31.0114C69.3465 30.9925 69.413 30.9864 69.4787 30.9934C69.5444 31.0005 69.608 31.0206 69.6658 31.0525C70.2444 31.3672 72.0511 32.0675 72.7108 31.4484C73.1574 31.0018 72.3251 27.5609 70.9346 24.0896C70.8848 23.9644 70.8867 23.8246 70.94 23.7009C70.9933 23.5772 71.0936 23.4797 71.2188 23.4299C71.344 23.3801 71.4838 23.382 71.6075 23.4353C71.7313 23.4886 71.8287 23.5889 71.8785 23.7141C72.7413 25.8557 74.619 30.9815 73.4315 32.169C73.2268 32.3605 72.9855 32.5087 72.7222 32.6046C72.4588 32.7005 72.1787 32.7423 71.8988 32.7273Z" fill="#231F20"/>
<path d="M72.1828 15.7768C74.294 18.365 72.6599 22.5773 72.061 25.4193C71.2084 29.3981 70.2679 33.3633 69.2393 37.3151C68.5796 39.812 62.0227 38.5229 61.0178 37.5282L59.9115 46.0238C59.9115 46.0238 57.4247 50.3375 52.6339 46.8053C47.8431 43.2731 47.3052 39.6394 47.3052 39.6394L50.1066 28.1801C50.1066 28.1801 54.4305 29.1037 58.054 24.4652C61.6776 19.8266 63.1899 11.8893 63.1899 11.8893C63.1899 11.8893 70.1325 13.2596 72.1828 15.7768Z" fill="white"/>
<path d="M56.2169 48.7135C54.7944 48.6467 53.4313 48.1235 52.3295 47.2215C47.4371 43.6081 46.8281 39.883 46.8078 39.7206C46.7978 39.6567 46.7978 39.5916 46.8078 39.5278L49.6194 28.0684C49.6485 27.941 49.7266 27.8302 49.8368 27.7599C49.9469 27.6897 50.0803 27.6656 50.2081 27.6929C50.3807 27.6929 54.2681 28.4744 57.6481 24.1708C61.1498 19.6845 62.7231 11.8792 62.7231 11.798C62.7555 11.6661 62.8349 11.5507 62.9464 11.4732C63.0009 11.4366 63.0623 11.4115 63.1269 11.3993C63.1914 11.3871 63.2577 11.388 63.3219 11.4021C63.6163 11.4529 70.4269 12.8333 72.6193 15.4621C74.5275 17.8068 73.6343 21.2375 72.9644 23.9983C72.8325 24.5362 72.7005 25.0133 72.599 25.5208C71.7464 29.4996 70.7923 33.519 69.7671 37.447C69.6364 37.8611 69.3938 38.231 69.066 38.5158C68.7382 38.8007 68.338 38.9893 67.9097 39.0609C65.7396 39.4547 63.502 39.2151 61.4644 38.3707L60.4494 46.0948C60.4399 46.1588 60.4193 46.2206 60.3886 46.2775C59.6637 47.4475 58.5082 48.2859 57.171 48.612C56.8575 48.6798 56.5376 48.7138 56.2169 48.7135ZM47.8228 39.6597C47.9446 40.218 48.8378 43.3645 52.8978 46.4095C53.4373 46.8821 54.0709 47.235 54.7567 47.445C55.4425 47.6549 56.165 47.7171 56.8766 47.6275C57.9017 47.3742 58.7934 46.7435 59.3736 45.8614L60.4698 37.4775C60.4833 37.383 60.5228 37.2942 60.5836 37.2208C60.6445 37.1473 60.7246 37.0921 60.8148 37.0613C60.904 37.0317 60.9995 37.0275 61.0909 37.049C61.1823 37.0705 61.2659 37.1169 61.3325 37.1831C63.2538 38.1504 65.4374 38.4674 67.5544 38.0865C68.2142 37.9139 68.5694 37.6094 68.7115 37.1933C69.7265 33.2855 70.6807 29.2864 71.5231 25.3178C71.6246 24.8306 71.7565 24.3028 71.8986 23.7547C72.5381 21.2172 73.3399 18.0605 71.7565 16.1117C70.1731 14.1629 65.1286 12.8637 63.535 12.4983C63.1392 14.3558 61.566 20.7401 58.4093 24.79C55.2527 28.8398 51.7407 28.85 50.4517 28.7586L47.8228 39.6597Z" fill="#231F20"/>
<path d="M69.7573 34.3208C69.7573 34.3208 66.2657 35.5896 65.271 32.0472L69.7573 34.3208Z" fill="white"/>
<path d="M68.2583 34.0003C67.7148 33.9932 67.177 34.1059 66.6879 34.3295C66.2673 34.5489 65.9008 34.85 65.6127 35.2128C65.3246 35.5757 65.1214 35.992 65.0164 36.4344C64.9836 36.5493 65.0004 36.6718 65.0633 36.7749C65.1261 36.8781 65.2299 36.9535 65.3516 36.9845C65.4734 37.0155 65.6033 36.9996 65.7127 36.9403C65.822 36.881 65.9019 36.7832 65.9348 36.6683C66.0062 36.3415 66.1504 36.0328 66.3578 35.7625C66.5652 35.4922 66.8311 35.2665 67.1379 35.1004C67.8507 34.8216 68.6461 34.7939 69.3787 35.0225C69.4354 35.0424 69.4957 35.0516 69.5561 35.0495C69.6166 35.0474 69.676 35.0341 69.731 35.0104C69.786 34.9867 69.8355 34.953 69.8767 34.9112C69.9179 34.8694 69.9499 34.8204 69.971 34.7669C69.9921 34.7135 70.0019 34.6566 69.9997 34.5996C69.9975 34.5426 69.9834 34.4865 69.9583 34.4347C69.9331 34.3828 69.8974 34.3361 69.8531 34.2972C69.8088 34.2584 69.7568 34.2281 69.7001 34.2082C69.2332 34.0713 68.7472 34.0012 68.2583 34.0003Z" fill="#231F20"/>
<path d="M63.2207 24.8915C63.3174 23.8674 63.1239 22.8368 62.6625 21.9175C62.413 21.1664 62.0502 20.4579 61.5866 19.8165C61.3538 19.4914 61.05 19.2237 60.6982 19.0338C60.3465 18.8438 59.956 18.7366 59.5566 18.7203C59.205 18.7358 58.8606 18.8251 58.5458 18.9825C58.231 19.1399 57.9529 19.3618 57.7296 19.6338C57.2911 20.1838 56.9824 20.8257 56.8262 21.5115C56.453 23.001 56.4778 24.5624 56.8982 26.0392C57.3186 27.516 58.1199 28.8563 59.2216 29.9259L59.0491 29.6417" fill="white"/>
<path d="M59.2419 30.4435C59.1128 30.4427 58.989 30.3918 58.8968 30.3014C57.7324 29.167 56.8855 27.7473 56.4403 26.1838C55.9951 24.6202 55.9672 22.9674 56.3593 21.3897C56.5452 20.647 56.8917 19.9541 57.3743 19.3597C57.642 19.0304 57.977 18.7623 58.3569 18.5732C58.7368 18.3841 59.1528 18.2785 59.5769 18.2635C60.0481 18.289 60.5082 18.4166 60.9253 18.6374C61.3424 18.8582 61.7066 19.167 61.9926 19.5424C62.4817 20.2305 62.8681 20.9862 63.1395 21.7856C63.6311 22.7932 63.8315 23.9181 63.7181 25.0336C63.7071 25.0994 63.683 25.1623 63.6473 25.2187C63.6115 25.275 63.5647 25.3235 63.5098 25.3614C63.4549 25.3993 63.3929 25.4257 63.3275 25.4392C63.2622 25.4526 63.1948 25.4527 63.1294 25.4396C62.9977 25.4149 62.8811 25.3392 62.8051 25.2289C62.729 25.1186 62.6996 24.9827 62.7234 24.8509C62.7938 23.9231 62.6114 22.9935 62.1956 22.1611C61.9608 21.4532 61.6185 20.7856 61.1806 20.1819C60.9886 19.928 60.746 19.7166 60.4683 19.5612C60.1905 19.4057 59.8835 19.3094 59.5667 19.2785C59.2875 19.292 59.0145 19.3652 58.7659 19.493C58.5173 19.6208 58.2989 19.8003 58.1254 20.0195C57.736 20.5093 57.465 21.0824 57.3337 21.6942C57.0089 23.0005 57.0074 24.3662 57.3293 25.6732C57.6512 26.9802 58.2868 28.189 59.181 29.1951C59.2468 29.2101 59.3087 29.2386 59.3628 29.2788C59.417 29.319 59.4622 29.3699 59.4957 29.4285L59.6682 29.7127C59.7307 29.8181 59.7538 29.9423 59.7333 30.0631C59.7129 30.1839 59.6502 30.2935 59.5566 30.3725C59.4612 30.4272 59.3515 30.4519 59.2419 30.4435Z" fill="#231F20"/>
<path d="M61.0179 37.5485C61.0179 37.5485 57.8308 35.8027 56.7346 33.1434C56.7346 33.1434 55.7196 39.2334 60.5611 42.1059L61.0179 37.5485Z" fill="#231F20"/>
<path d="M60.5612 42.6235C60.4719 42.6217 60.3846 42.5972 60.3074 42.5525C55.2324 39.5785 56.2474 33.1434 56.2474 33.0724C56.2666 32.9639 56.3206 32.8647 56.4011 32.7896C56.4817 32.7146 56.5845 32.6677 56.694 32.6562C56.8031 32.643 56.9135 32.6655 57.0087 32.7204C57.1039 32.7753 57.1786 32.8597 57.2218 32.9607C58.2368 35.417 61.2818 37.1019 61.2818 37.1222C61.3691 37.1708 61.4405 37.2436 61.4873 37.3319C61.5341 37.4201 61.5544 37.52 61.5457 37.6196L61.0788 42.1668C61.0713 42.2508 61.0421 42.3315 60.9941 42.4009C60.9461 42.4703 60.8808 42.526 60.8048 42.5626C60.7306 42.6048 60.6464 42.6258 60.5612 42.6235ZM57.1406 34.8791C57.1301 36.0988 57.3991 37.3047 57.927 38.4043C58.4548 39.5039 59.2274 40.4681 60.1856 41.2228L60.5307 37.8327C59.2296 37.0511 58.081 36.0401 57.1406 34.8486V34.8791Z" fill="#231F20"/>
<path d="M70.2347 20.8845C70.5265 20.1319 70.5258 19.4298 70.2331 19.3163C69.9404 19.2028 69.4666 19.721 69.1748 20.4736C68.883 21.2263 68.8838 21.9284 69.1765 22.0418C69.4691 22.1553 69.943 21.6372 70.2347 20.8845Z" fill="#231F20"/>
<path d="M40.4845 40.3905C40.4845 40.3905 58.1455 41.101 62.6724 50.6623C67.1993 60.2236 65.7174 93.0081 68.3361 95.7689C70.9548 98.5297 77.1868 112.009 76.9838 112.567C76.7808 113.125 29.7559 118.231 29.7559 118.231C29.7559 118.231 29.2281 107.512 27.0459 93.3228C24.8636 79.1331 27.4316 38.7056 40.4845 40.3905Z" fill="#B94841"/>
<path d="M48.29 134.796C48.1748 134.799 48.0624 134.76 47.9754 134.684C47.8693 134.602 47.8001 134.481 47.783 134.348C47.7658 134.214 47.8022 134.08 47.884 133.973C54.2684 125.914 50.9899 121.631 50.8478 121.448C50.8049 121.398 50.7726 121.339 50.7529 121.275C50.7331 121.211 50.7264 121.144 50.733 121.078C50.7396 121.012 50.7595 120.948 50.7914 120.889C50.8234 120.831 50.8667 120.779 50.9189 120.738C51.0228 120.654 51.1557 120.614 51.2887 120.627C51.4218 120.641 51.5442 120.706 51.6294 120.809C51.7918 121.012 55.598 125.884 48.6859 134.603C48.6391 134.663 48.5791 134.712 48.5105 134.745C48.4418 134.779 48.3664 134.796 48.29 134.796Z" fill="white"/>
<path d="M34.6077 40.3398C34.6077 40.3398 7.55791 69.724 2.95996 124.737L18.185 124.422C18.185 124.422 24.9449 96.1445 43.8137 65.0956L34.6077 40.3398Z" fill="#B94841"/>
<path d="M75.3597 108.345H75.2582C75.1529 108.321 75.0576 108.265 74.985 108.185C74.9124 108.105 74.8661 108.005 74.8522 107.898C74.6796 107.411 73.0658 104.62 71.6448 102.163C69.6148 98.6617 67.5238 95.0584 67.1178 93.9521C66.6611 92.6935 66.1029 83.8021 65.3315 72.2311C65.0067 67.1561 64.7225 62.7916 64.5601 61.1473C64.0714 57.647 63.2766 54.1963 62.185 50.8349C62.1432 50.7003 62.1567 50.5546 62.2224 50.4299C62.288 50.3052 62.4005 50.2118 62.5351 50.17C62.6697 50.1283 62.8154 50.1418 62.9401 50.2074C63.0647 50.2731 63.1582 50.3856 63.2 50.5202C64.3189 53.9493 65.1274 57.472 65.6157 61.0458C65.7882 62.7104 66.0724 67.1358 66.3871 72.2108C66.9352 80.7469 67.6761 92.4296 68.1227 93.6476C68.4983 94.6626 70.6602 98.3978 72.5786 101.707C75.989 107.604 75.9788 107.685 75.9078 108C75.8709 108.112 75.796 108.208 75.6959 108.271C75.5958 108.334 75.4769 108.36 75.3597 108.345Z" fill="#231F20"/>
<path d="M20.4282 115.399C20.3745 115.409 20.3195 115.409 20.2658 115.399C20.1391 115.353 20.0353 115.259 19.9766 115.138C19.9178 115.017 19.9087 114.877 19.9511 114.749C20.0831 114.384 33.1461 77.641 46.7776 60.1729C46.8182 60.12 46.8691 60.0757 46.9272 60.0429C46.9852 60.01 47.0493 59.9892 47.1156 59.9816C47.1819 59.974 47.2491 59.9799 47.313 59.9988C47.377 60.0177 47.4366 60.0493 47.4881 60.0917C47.541 60.1323 47.5852 60.1832 47.6181 60.2413C47.6509 60.2993 47.6718 60.3634 47.6794 60.4297C47.6869 60.496 47.6811 60.5631 47.6622 60.6271C47.6433 60.6911 47.6117 60.7507 47.5693 60.8022C34.0089 78.1485 21.0372 114.689 20.9154 115.064C20.8769 115.162 20.8099 115.246 20.7231 115.306C20.6363 115.366 20.5335 115.398 20.4282 115.399Z" fill="#231F20"/>
<path d="M110.997 73.4288C111.078 69.7748 111.758 65.9482 114.042 63.1164C114.63 62.4059 115.554 61.7157 116.386 62.1014C116.665 62.2727 116.899 62.5089 117.066 62.7899C117.234 63.0709 117.332 63.3884 117.35 63.7152C117.373 64.3658 117.507 65.0078 117.746 65.6133" fill="white"/>
<path d="M110.996 73.9362C110.93 73.9349 110.864 73.9205 110.803 73.8938C110.742 73.867 110.687 73.8285 110.641 73.7805C110.594 73.7324 110.558 73.6757 110.534 73.6136C110.51 73.5515 110.498 73.4852 110.499 73.4186C110.601 68.78 111.636 65.2986 113.676 62.8017C114.61 61.6547 115.706 61.2183 116.63 61.6345C116.997 61.8344 117.305 62.127 117.524 62.4832C117.743 62.8393 117.865 63.2466 117.878 63.6645C117.908 63.8323 117.929 64.0017 117.939 64.172C117.958 64.5985 118.054 65.0181 118.223 65.4102C118.284 65.5289 118.296 65.6667 118.256 65.794C118.216 65.9212 118.128 66.0277 118.01 66.0903C117.951 66.1221 117.886 66.1418 117.819 66.1482C117.752 66.1547 117.685 66.1478 117.62 66.128C117.556 66.1082 117.497 66.0758 117.445 66.0327C117.393 65.9897 117.351 65.9368 117.32 65.8772C117.095 65.3739 116.965 64.8338 116.934 64.2836C116.934 64.1313 116.934 63.9689 116.873 63.8167C116.823 63.4513 116.66 62.8017 116.214 62.5987C115.767 62.3957 114.925 62.9134 114.468 63.4818C112.57 65.8061 111.605 69.0744 111.514 73.4795C111.499 73.606 111.438 73.7225 111.343 73.8068C111.247 73.891 111.124 73.9371 110.996 73.9362Z" fill="#231F20"/>
<path d="M37.693 29.733C36.3504 28.7532 34.8195 28.062 33.1966 27.703C30.9922 27.5285 28.7901 28.0657 26.9137 29.2357C24.2884 30.5231 22.061 32.4979 20.4685 34.9501C19.6873 36.1803 19.2269 37.5866 19.1294 39.0405C19.0319 40.4945 19.3003 41.9497 19.9102 43.2731C20.6188 44.4607 21.5782 45.4792 22.7212 46.2576C23.8642 47.036 25.1634 47.5555 26.528 47.7797C29.2575 48.2179 32.0346 48.276 34.78 47.9523C37.4137 47.7392 40.059 47.7087 42.697 47.8609C48.1069 48.2669 53.3139 50.0432 58.6325 51.0683C61.9921 51.7078 60.6625 48.1553 59.3937 46.8358C57.2419 44.6637 54.9954 42.5931 52.6541 40.624C47.9249 36.6522 42.9258 33.0131 37.693 29.733Z" fill="#B94841"/>
<path d="M50.2894 48.7135C50.1926 48.7102 50.0982 48.6823 50.0153 48.6323C47.0899 46.7523 43.7174 45.6836 40.2432 45.5355C36.769 45.3875 33.3178 46.1655 30.2431 47.7899C30.1302 47.8387 30.0034 47.8448 29.8863 47.8072C29.7692 47.7695 29.6698 47.6906 29.6065 47.5852C29.5432 47.4797 29.5204 47.3548 29.5423 47.2338C29.5642 47.1127 29.6292 47.0038 29.7254 46.9271C32.9621 45.2017 36.6005 44.3711 40.2653 44.5209C43.9301 44.6708 47.4886 45.7958 50.5736 47.7797C50.6848 47.8541 50.7622 47.9695 50.7888 48.1006C50.8154 48.2318 50.7891 48.3682 50.7157 48.4801C50.6712 48.5529 50.6085 48.6128 50.5337 48.6538C50.4589 48.6947 50.3746 48.7153 50.2894 48.7135Z" fill="#231F20"/>
<path d="M148.105 11.3412H104.622C103.415 11.3439 102.259 11.8252 101.406 12.6796C100.554 13.534 100.075 14.6916 100.075 15.8986V39.1015C100.081 40.3049 100.562 41.4573 101.414 42.3073C102.265 43.1573 103.419 43.6358 104.622 43.6385H109.88V52.7735L115.148 43.6385H148.075C148.677 43.6479 149.276 43.5377 149.836 43.3141C150.396 43.0906 150.905 42.7582 151.336 42.3362C151.766 41.9142 152.109 41.411 152.344 40.8558C152.578 40.3005 152.7 39.7043 152.703 39.1015V15.8986C152.703 15.2967 152.584 14.7007 152.352 14.1451C152.121 13.5895 151.781 13.0853 151.354 12.6616C150.926 12.2379 150.419 11.903 149.861 11.6764C149.304 11.4498 148.707 11.3359 148.105 11.3412Z" fill="white"/>
<path d="M109.88 53.2607C109.837 53.2703 109.792 53.2703 109.748 53.2607C109.639 53.2351 109.542 53.1726 109.474 53.0839C109.405 52.9951 109.37 52.8855 109.373 52.7735V44.1663H104.622C103.276 44.1663 101.986 43.6316 101.034 42.6799C100.082 41.7281 99.5474 40.4373 99.5474 39.0913V15.8985C99.5474 14.5526 100.082 13.2617 101.034 12.31C101.986 11.3582 103.276 10.8235 104.622 10.8235H148.105C149.451 10.8235 150.742 11.3582 151.694 12.31C152.645 13.2617 153.18 14.5526 153.18 15.8985V39.1014C153.18 40.4474 152.645 41.7383 151.694 42.69C150.742 43.6418 149.451 44.1764 148.105 44.1764H115.463L110.317 53.0171C110.273 53.0933 110.209 53.1562 110.132 53.1991C110.055 53.242 109.968 53.2633 109.88 53.2607ZM104.622 11.8487C103.546 11.8487 102.513 12.2764 101.752 13.0378C100.99 13.7992 100.562 14.8319 100.562 15.9087V39.1014C100.562 40.1782 100.99 41.2109 101.752 41.9723C102.513 42.7337 103.546 43.1614 104.622 43.1614H109.88C110.015 43.1614 110.144 43.2149 110.239 43.3101C110.334 43.4053 110.388 43.5344 110.388 43.6689V50.8856L114.732 43.4152C114.778 43.3384 114.844 43.2747 114.922 43.2303C115 43.1859 115.088 43.1622 115.178 43.1614H148.105C149.182 43.1614 150.214 42.7337 150.976 41.9723C151.737 41.2109 152.165 40.1782 152.165 39.1014V15.8985C152.165 14.8218 151.737 13.7891 150.976 13.0277C150.214 12.2663 149.182 11.8385 148.105 11.8385L104.622 11.8487Z" fill="#D1D3D4"/>
</svg>
